<?xml version="1.0" encoding="UTF-8"?>
<svg version="1.1" xmlns="http://www.w3.org/2000/svg" width="500" height="500">
<path d="M0 0 C0.33 26.73 0.66 53.46 1 81 C3.97 73.575 3.97 73.575 7 66 C13.05431937 57.12729058 13.05431937 57.12729058 18 55 C18 54.34 18 53.68 18 53 C24.0588989 48.37203254 30.66116185 45.7896465 38 44 C38.61101562 43.81566406 39.22203125 43.63132813 39.8515625 43.44140625 C51.64690309 41.01799991 64.54356428 43.25440642 75 49 C85.41157888 56.24219356 92.85498688 64.59796712 96 77 C96.27714844 77.94230469 96.55429688 78.88460937 96.83984375 79.85546875 C101.32708342 96.50168042 100.14366733 115.60011626 92 131 C84.98904161 141.83836934 74.97606582 150.61545168 62.22167969 153.60522461 C58.27799148 154.30598767 54.37276169 154.3827461 50.375 154.375 C49.06764893 154.37258301 49.06764893 154.37258301 47.73388672 154.37011719 C37.39569509 154.17624046 28.54935623 152.06183168 20 146 C19.21625 145.46375 18.4325 144.9275 17.625 144.375 C17.08875 143.92125 16.5525 143.4675 16 143 C16 142.34 16 141.68 16 141 C15.34 141 14.68 141 14 141 C12.23046875 139.05078125 12.23046875 139.05078125 10.1875 136.3125 C9.52105469 135.44238281 8.85460937 134.57226562 8.16796875 133.67578125 C4.82743422 128.61546095 3.0461382 122.66764976 1 117 C0.99191315 117.67936615 0.98382629 118.3587323 0.97549438 119.0586853 C0.88906884 126.16479398 0.78955084 133.27063583 0.68261719 140.37646484 C0.64446437 143.02420552 0.60958824 145.6719956 0.578125 148.31982422 C0.5321763 152.13787429 0.4742312 155.95558818 0.4140625 159.7734375 C0.40251129 160.94675629 0.39096008 162.12007507 0.37905884 163.32894897 C0.05848563 181.40534561 -5.21293426 200.64075038 -18 214 C-31.03018731 224.90236211 -46.07878622 229.99536552 -63 229 C-67.86165829 228.45981575 -71.08347449 227.74102062 -74.9375 224.625 C-78.37879147 220.2451745 -79.25028941 217.52951978 -79.1953125 211.921875 C-79.18886719 210.76171875 -79.18242188 209.6015625 -79.17578125 208.40625 C-79.15064453 206.59640625 -79.15064453 206.59640625 -79.125 204.75 C-79.11597656 203.52796875 -79.10695312 202.3059375 -79.09765625 201.046875 C-79.07409513 198.03105218 -79.04119706 195.01562508 -79 192 C-77.68 191.67 -76.36 191.34 -75 191 C-75 191.66 -75 192.32 -75 193 C-59.28759694 194.81274862 -59.28759694 194.81274862 -45.140625 188.59375 C-34.10819 177.45208297 -35.86938426 158.14647056 -35.92001343 143.68365479 C-35.93483261 141.70821686 -35.93483261 141.70821686 -35.94995117 139.69287109 C-35.95680724 138.24213897 -35.96313316 136.79140427 -35.96897888 135.34066772 C-35.98215046 132.2546628 -35.99824577 129.16869284 -36.01653099 126.08271408 C-36.04469981 121.19868605 -36.06147389 116.31465783 -36.07600403 111.43057251 C-36.08114526 109.74970813 -36.08630189 108.06884379 -36.09147358 106.38797951 C-36.09405914 105.54737268 -36.0966447 104.70676585 -36.09930861 103.84068608 C-36.13521656 92.49576423 -36.18106099 81.15094142 -36.24682617 69.80615234 C-36.29132342 62.11434013 -36.32157244 54.42261269 -36.33568364 46.73068297 C-36.34374183 42.67174999 -36.35919518 38.61314459 -36.39235497 34.55433273 C-36.42341925 30.74725316 -36.43588034 26.94056722 -36.43413734 23.13336563 C-36.43682982 21.73936624 -36.44637281 20.34536023 -36.46336365 18.95146179 C-36.60127255 7.12420941 -36.60127255 7.12420941 -34.16011047 3.18667603 C-25.84118344 -5.23455915 -9.2508025 0 0 0 Z M38.40625 77.3359375 C36.78821852 79.25060809 35.87117673 81.076734 34.875 83.375 C34.54242188 84.12523437 34.20984375 84.87546875 33.8671875 85.6484375 C30.61682863 94.46247372 30.91607714 104.94713915 33.94921875 113.7734375 C36.34744654 118.85518413 39.73445531 122.87200732 45 125 C49.75030752 125.83415751 53.75322795 125.59576208 57.8125 122.875 C64.09483092 117.65426666 66.06787683 111.88809229 67 104 C67.61752107 95.59914049 66.48228205 87.71076741 63 80 C62.34 80 61.68 80 61 80 C60.34 78.68 59.68 77.36 59 76 C58.34 76 57.68 76 57 76 C57 75.34 57 74.68 57 74 C50.12564378 72.67923249 44.01781837 72.63212283 38.40625 77.3359375 Z " fill="#173866" transform="translate(116,124)"/>
<path d="M0 0 C9.9 0 19.8 0 30 0 C34.87492957 4.87492957 34.87492957 4.87492957 35.1241985 9.11025542 C35.12381878 9.93234994 35.12343906 10.75444445 35.12304783 11.60145092 C35.12503888 12.55142427 35.12702993 13.50139761 35.12908131 14.48015803 C35.12471205 16.04872073 35.12471205 16.04872073 35.12025452 17.64897156 C35.12110894 18.75817752 35.12196337 19.86738349 35.12284368 21.01020175 C35.12449751 24.74599377 35.11897865 28.48174138 35.11352539 32.2175293 C35.11324347 34.88788962 35.11335726 37.55824719 35.1139679 40.22860718 C35.11449273 45.98750459 35.11135017 51.74639069 35.10573006 57.50528526 C35.09760956 65.83172127 35.09499927 74.1581518 35.09374207 82.48459134 C35.09155241 95.99306725 35.08489467 109.50153713 35.07543945 123.01000977 C35.0662631 136.13370737 35.05918335 149.25740335 35.05493164 162.38110352 C35.05466892 163.18979115 35.05440619 163.99847878 35.05413551 164.83167209 C35.05283049 168.88854349 35.05156678 172.9454149 35.05032361 177.00228631 C35.03995369 210.66819543 35.02206288 244.33409656 35 278 C23.45 278 11.9 278 0 278 C0 186.26 0 94.52 0 0 Z " fill="#197EB9" transform="translate(405,115)"/>
<path d="M0 0 C0 0.66 0 1.32 0 2 C0.598125 2.25910156 1.19625 2.51820313 1.8125 2.78515625 C9.00069304 6.7771706 11.84853254 15.55261265 14 23 C14.226875 23.78375 14.45375 24.5675 14.6875 25.375 C16.93021066 35.09341285 16.73592915 46.07794345 16 56 C12.94721371 59.05278629 4.06923515 58.07649064 -0.07055664 58.11352539 C-2.35042931 58.11336891 -4.63030628 58.10782994 -6.91015625 58.09765625 C-8.11820419 58.0962413 -9.32625214 58.09482635 -10.57090759 58.09336853 C-14.40146437 58.08780395 -18.23196111 58.07525803 -22.0625 58.0625 C-24.67122311 58.05748042 -27.27994714 58.05291832 -29.88867188 58.04882812 C-36.25913481 58.03784613 -42.62956311 58.02114354 -49 58 C-48.39413611 59.2763583 -47.78065745 60.54910353 -47.1640625 61.8203125 C-46.8232666 62.52945801 -46.4824707 63.23860352 -46.13134766 63.96923828 C-43.9266152 67.92671878 -41.07581665 70.30319687 -36.77734375 71.74609375 C-25.77322036 74.27477504 -15.51054605 73.61280723 -5.3125 68.875 C0.62744423 66.1796486 0.62744423 66.1796486 4 67 C9.4247644 70.72287753 11.34918826 73.74594128 12.6171875 80.0859375 C12.89846936 83.67441219 12.88023677 86.50062737 12 90 C4.90841763 97.83592785 -8.02904016 99.48314122 -18 101 C-18.71349609 101.11134277 -19.42699219 101.22268555 -20.16210938 101.33740234 C-34.80348507 103.42077358 -49.54518837 100.92367216 -61.75 92.25 C-73.35316036 83.37950364 -78.97280142 72.5043975 -81.3125 58.125 C-83.31866992 40.53692778 -81.63048094 25.17982784 -72 10 C-71.55269531 9.27554688 -71.10539062 8.55109375 -70.64453125 7.8046875 C-67.61064955 3.19318731 -67.61064955 3.19318731 -64.8515625 2.3203125 C-63.93503906 2.16175781 -63.93503906 2.16175781 -63 2 C-63 1.34 -63 0.68 -63 0 C-44.05690733 -13.68323997 -19.01637389 -13.99254462 0 0 Z M-43.66015625 21.8046875 C-46.81032547 25.75170803 -47.97141838 27.85709191 -49 33 C-37.78 33 -26.56 33 -15 33 C-15.60591527 26.55808655 -15.60591527 26.55808655 -18.8125 22.1875 C-19.31394531 21.62417969 -19.81539063 21.06085938 -20.33203125 20.48046875 C-24.47216914 16.80573278 -28.17856834 16.61237947 -33.5390625 16.76171875 C-37.95755141 17.18954069 -40.65518322 18.53810505 -43.66015625 21.8046875 Z " fill="#193A67" transform="translate(387,177)"/>
<path d="M0 0 C11.88 0 23.76 0 36 0 C37.91848996 5.11597322 39.65844557 9.98566073 41.1640625 15.19921875 C41.35762329 15.86481308 41.55118408 16.53040741 41.75061035 17.21617126 C42.16405538 18.6379287 42.57628078 20.06004129 42.98736572 21.48248291 C47.77995182 38.05583009 52.8246004 54.54245644 58 71 C58.17426514 70.45214844 58.34853027 69.90429688 58.52807617 69.33984375 C60.76937296 62.30046923 63.02440212 55.26552819 65.28356934 48.23187256 C66.05870341 45.81712323 66.83257294 43.40197036 67.60644531 40.98681641 C69.04657725 36.4945871 70.49251294 32.00425398 71.94155884 27.51489258 C72.52038416 25.71888921 73.09752338 23.92234152 73.67294312 22.12524414 C74.49224992 19.56767951 75.31770599 17.01217362 76.14453125 14.45703125 C76.38805328 13.69227982 76.63157532 12.92752838 76.88247681 12.13960266 C77.11695526 11.4191124 77.35143372 10.69862213 77.59301758 9.95629883 C77.79316971 9.33443192 77.99332184 8.712565 78.19953918 8.07185364 C79.2713086 5.29776487 80.67001818 2.65996363 82 0 C92.89 0 103.78 0 115 0 C114.20138325 3.99308374 113.27403666 7.15468897 111.8046875 10.8984375 C111.34328369 12.08123291 110.88187988 13.26402832 110.40649414 14.48266602 C110.15771515 15.11488068 109.90893616 15.74709534 109.65261841 16.39846802 C108.8602324 18.41253593 108.07285228 20.42849524 107.28686523 22.44506836 C106.43943723 24.61927712 105.59175751 26.79338328 104.74272156 28.96696472 C101.48522313 37.30747263 98.26047846 45.6605411 95.04327393 54.0166626 C94.08563228 56.50245455 93.12565936 58.98733707 92.16552734 61.47216797 C89.03243456 69.59739541 85.97517262 77.73561207 83.10180664 85.95703125 C81.25757854 91.05041904 79.13911663 96.02482874 77 101 C76.01 103.31 75.02 105.62 74 108 C63.11 108 52.22 108 41 108 C38.31861204 102.63722408 35.92672424 97.51356078 33.86328125 91.93359375 C33.58244186 91.18559509 33.30160248 90.43759644 33.01225281 89.66693115 C32.41590479 88.07750576 31.8214441 86.48737112 31.22875977 84.89657593 C29.67816693 80.73506447 28.11375641 76.57874819 26.55078125 72.421875 C26.24343048 71.6033757 25.93607971 70.7848764 25.61941528 69.9415741 C23.13529584 63.3347928 20.58956754 56.75369996 18 50.1875 C15.11376815 42.86165983 12.28926363 35.51905012 9.55078125 28.13671875 C8.34565447 24.89960758 7.10474616 21.67735431 5.85546875 18.45703125 C5.48623291 17.50135254 5.11699707 16.54567383 4.73657227 15.56103516 C4.00801532 13.67763623 3.27556765 11.7957367 2.53881836 9.91552734 C2.20889893 9.06039551 1.87897949 8.20526367 1.5390625 7.32421875 C1.24209473 6.56197998 0.94512695 5.79974121 0.63916016 5.0144043 C0 3 0 3 0 0 Z " fill="#16A9E8" transform="translate(202,169)"/>
<path d="M0 0 C0.33 0 0.66 0 1 0 C1 89.43 1 178.86 1 271 C-10.55 271 -22.1 271 -34 271 C-34 217.54 -34 164.08 -34 109 C-33.67 109 -33.34 109 -33 109 C-32.99576806 109.61660429 -32.99153612 110.23320858 -32.98717594 110.86849785 C-32.8839662 125.85722554 -32.77534308 140.84590331 -32.66066074 155.83454704 C-32.6053329 163.08287813 -32.55185163 170.33121413 -32.50268555 177.57958984 C-32.45983833 183.89571338 -32.41355899 190.21180074 -32.36312145 196.52786839 C-32.33652483 199.87357709 -32.31167188 203.21927863 -32.29092598 206.56502914 C-32.26693072 210.29584531 -32.23686951 214.02656538 -32.20532227 217.75732422 C-32.1995668 218.87222229 -32.19381134 219.98712036 -32.18788147 221.13580322 C-32.17809265 222.14825104 -32.16830383 223.16069885 -32.15821838 224.2038269 C-32.15176583 225.08690458 -32.14531328 225.96998226 -32.1386652 226.87981987 C-32.13404439 229.05515044 -32.13404439 229.05515044 -31 231 C-30.91350549 233.48099734 -30.88434946 235.93344928 -30.90234375 238.4140625 C-30.90446617 239.50852188 -30.90446617 239.50852188 -30.90663147 240.62509155 C-30.91223469 242.95843585 -30.92478765 245.29168464 -30.9375 247.625 C-30.94251459 249.20572778 -30.94707757 250.78645707 -30.95117188 252.3671875 C-30.96220516 256.24482854 -30.97947189 260.12239807 -31 264 C-30.195625 264.12375 -29.39125 264.2475 -28.5625 264.375 C-27.2940625 264.684375 -27.2940625 264.684375 -26 265 C-25.67 265.66 -25.34 266.32 -25 267 C-21.81175432 268.59412284 -18.37103338 268.10174735 -14.875 268.0625 C-13.74384766 268.05573242 -13.74384766 268.05573242 -12.58984375 268.04882812 C-10.72652873 268.03703499 -8.86325445 268.01909942 -7 268 C-6.71125 267.030625 -6.4225 266.06125 -6.125 265.0625 C-5 262 -5 262 -3 261 C-3 237.9 -3 214.8 -3 191 C-2.34 190.67 -1.68 190.34 -1 190 C-0.67 127.3 -0.34 64.6 0 0 Z " fill="#86BBE8" transform="translate(439,122)"/>
<path d="M0 0 C0.66 0 1.32 0 2 0 C2.02533211 7.90201128 2.04285934 15.8040121 2.05493164 23.70605469 C2.05939946 26.39486852 2.06636119 29.08365882 2.07543945 31.77246094 C2.08755371 35.6347725 2.09323945 39.49704792 2.09765625 43.359375 C2.10281754 44.5636615 2.10797882 45.767948 2.11329651 47.00872803 C2.11337204 48.12958801 2.11344757 49.250448 2.11352539 50.40527344 C2.115746 51.39122498 2.11796661 52.37717651 2.12025452 53.39300537 C2 56 2 56 1.43040466 58.16217041 C0.78033881 60.214713 0.78033881 60.214713 2 63 C2.06913362 64.81130086 2.08463346 66.62501541 2.0625 68.4375 C2.05347656 69.38496094 2.04445313 70.33242187 2.03515625 71.30859375 C2.01775391 72.64083984 2.01775391 72.64083984 2 74 C2 76.7182382 2.01049041 79.43441827 2.03515625 82.15234375 C2.04442211 83.74739496 2.05353183 85.34244709 2.0625 86.9375 C2.07506836 88.13536133 2.07506836 88.13536133 2.08789062 89.35742188 C2.1045444 93.37764243 2.00679132 97.07589209 1 101 C0.67 101 0.34 101 0 101 C-0.33 97.7 -0.66 94.4 -1 91 C-1.33 91 -1.66 91 -2 91 C-2.04629221 79.57805441 -2.08185334 68.15613105 -2.10362434 56.73411083 C-2.11407207 51.43069844 -2.12824932 46.12735012 -2.15087891 40.82397461 C-2.172572 35.70819276 -2.18456117 30.59247262 -2.18975449 25.47664833 C-2.1934566 23.52256613 -2.20068568 21.56848739 -2.21146011 19.61443138 C-2.22592806 16.88244641 -2.22797991 14.15071814 -2.22705078 11.41870117 C-2.23424133 10.60662201 -2.24143188 9.79454285 -2.24884033 8.95785522 C-2.23461315 5.10486942 -2.18879643 3.28319465 0 0 Z " fill="#203962" transform="translate(82,145)"/>
<path d="M0 0 C4.8675 -0.0825 9.735 -0.165 14.75 -0.25 C16.27979492 -0.28641602 17.80958984 -0.32283203 19.38574219 -0.36035156 C21.19800293 -0.37533691 21.19800293 -0.37533691 23.046875 -0.390625 C24.28276367 -0.41157227 25.51865234 -0.43251953 26.79199219 -0.45410156 C30.70258604 0.09945282 31.60889503 0.91842235 34 4 C34.48101807 6.83477783 34.48101807 6.83477783 34.45410156 10.14550781 C34.45379944 11.38649231 34.45349731 12.62747681 34.45318604 13.90606689 C34.43276115 15.25509282 34.41189719 16.60411217 34.390625 17.953125 C34.38316102 19.33745506 34.37746883 20.72179572 34.37347412 22.10614014 C34.35822974 25.74289317 34.31895952 29.37900325 34.2746582 33.01550293 C34.23367892 36.72899682 34.21545751 40.44259499 34.1953125 44.15625 C34.15246301 51.43779254 34.08422754 58.71880605 34 66 C33.67 66 33.34 66 33 66 C32.97494385 65.00484375 32.9498877 64.0096875 32.92407227 62.984375 C32.43408842 43.64848636 31.89825657 24.32207224 31 5 C29.71254964 4.61077082 28.41980403 4.23901964 27.125 3.875 C26.40570313 3.66617188 25.68640625 3.45734375 24.9453125 3.2421875 C24.30335938 3.16226563 23.66140625 3.08234375 23 3 C22.34 3.66 21.68 4.32 21 5 C20.67 4.34 20.34 3.68 20 3 C16.37 3 12.74 3 9 3 C8.67 3.66 8.34 4.32 8 5 C7.34 4.67 6.68 4.34 6 4 C5.01 4.495 5.01 4.495 4 5 C2.88082936 10.36502425 2.91557423 15.60315187 3 21.0625 C3.0690727 29.09769602 2.73146649 36.99305437 2 45 C1.67 45 1.34 45 1 45 C0.67 30.15 0.34 15.3 0 0 Z " fill="#254C75" transform="translate(405,115)"/>
<path d="M0 0 C0.33 0 0.66 0 1 0 C2.14326814 26.69457143 2.12223559 53.37533037 2.06866455 80.08990479 C2.05825128 85.85029727 2.05382924 91.61069447 2.04882812 97.37109375 C2.03825065 108.58074111 2.02128961 119.7903682 2 131 C1.67 131 1.34 131 1 131 C0.97494385 130.00371582 0.9498877 129.00743164 0.92407227 127.98095703 C0.82799724 124.18986823 0.72831423 120.39888058 0.62768555 116.60791016 C0.58507522 114.98488778 0.54337028 113.36184132 0.50268555 111.73876953 C0.28919898 103.24674842 0.00814253 94.77506027 -0.52734375 86.296875 C-1.20035182 75.24501998 -1.15144096 64.19342049 -1.125 53.125 C-1.12411377 52.05492706 -1.12322754 50.98485413 -1.12231445 49.88235474 C-1.1061423 33.23607666 -0.85136086 16.62644352 0 0 Z " fill="#205E8F" transform="translate(437,149)"/>
<path d="M0 0 C0.33 0 0.66 0 1 0 C1.02505615 1.12494873 1.0501123 2.24989746 1.07592773 3.40893555 C1.17028435 7.5929655 1.27043553 11.77684036 1.37231445 15.96069336 C1.4155566 17.76957565 1.45723904 19.57849595 1.49731445 21.38745117 C1.5552774 23.99149005 1.61889613 26.59533955 1.68359375 29.19921875 C1.70030624 30.00461594 1.71701874 30.81001312 1.73423767 31.63981628 C1.83719749 35.56515623 2.19647965 39.14869898 3 43 C3.2306271 47.80905948 3.19255258 52.62351297 3.1875 57.4375 C3.18858765 58.48272827 3.18858765 58.48272827 3.18969727 59.54907227 C3.18796278 74.75531485 2.23853731 89.84768188 1 105 C0.67 105 0.34 105 0 105 C0 70.35 0 35.7 0 0 Z " fill="#6C94B5" transform="translate(405,122)"/>
<path d="M0 0 C10.89 0 21.78 0 33 0 C32.15813297 4.20933513 31.10885537 7.41267079 29.4375 11.3125 C28.98246094 12.38113281 28.52742188 13.44976562 28.05859375 14.55078125 C27.53458984 15.76314453 27.53458984 15.76314453 27 17 C25.54393481 12.47907032 26.72967159 9.48351204 28 5 C28.66 5 29.32 5 30 5 C30 4.01 30 3.02 30 2 C20.1 2 10.2 2 0 2 C-0.33 5.3 -0.66 8.6 -1 12 C-1.66 12 -2.32 12 -3 12 C-3 13.98 -3 15.96 -3 18 C-3.99 18.33 -4.98 18.66 -6 19 C-5.49328469 11.56817549 -3.15404163 7.56969992 0 0 Z " fill="#68B7D7" transform="translate(284,169)"/>
<path d="M0 0 C3.07701418 3.07701418 3.93499477 4.29686288 4.09765625 8.55859375 C4.08605469 9.50863281 4.07445313 10.45867187 4.0625 11.4375 C4.05347656 12.38496094 4.04445313 13.33242187 4.03515625 14.30859375 C4.02355469 15.19675781 4.01195313 16.08492187 4 17 C4 19.7182382 4.01049041 22.43441827 4.03515625 25.15234375 C4.04442211 26.74739496 4.05353183 28.34244709 4.0625 29.9375 C4.07087891 30.73607422 4.07925781 31.53464844 4.08789062 32.35742188 C4.1045444 36.37764243 4.00679132 40.07589209 3 44 C2.67 44 2.34 44 2 44 C1.67 40.7 1.34 37.4 1 34 C0.67 34 0.34 34 0 34 C0 22.78 0 11.56 0 0 Z " fill="#42577A" transform="translate(80,202)"/>
<path d="M0 0 C1.1346488 3.4039464 0.91089998 3.91439927 -0.35522461 7.10424805 C-0.67563217 7.92487228 -0.99603973 8.74549652 -1.32615662 9.59098816 C-1.68129837 10.47232925 -2.03644012 11.35367035 -2.40234375 12.26171875 C-2.75889542 13.16751175 -3.11544708 14.07330475 -3.48280334 15.00654602 C-4.62559081 17.90375917 -5.78136051 20.7955925 -6.9375 23.6875 C-7.71375006 25.6487486 -8.48915162 27.61033326 -9.26367188 29.57226562 C-11.16594625 34.38545578 -13.07890973 39.1942912 -15 44 C-15.33 44 -15.66 44 -16 44 C-16.19294408 39.17639811 -15.75747614 35.50353262 -14 31 C-13.34 31 -12.68 31 -12 31 C-11.67 27.7 -11.34 24.4 -11 21 C-10.34 21 -9.68 21 -9 21 C-8.8453125 19.3603125 -8.8453125 19.3603125 -8.6875 17.6875 C-7.96176305 13.7949109 -7.62633677 13.51690607 -5 11 C-4.2730774 7.89160979 -4.2730774 7.89160979 -4 5 C-3.34 5 -2.68 5 -2 5 C-2 3.68 -2 2.36 -2 1 C-1.34 0.67 -0.68 0.34 0 0 Z " fill="#48ACD9" transform="translate(309,187)"/>
<path d="M0 0 C2.3639196 3.54587941 2.24355585 5.01503682 2.22705078 9.21557617 C2.22689972 10.4966777 2.22674866 11.77777924 2.22659302 13.09770203 C2.21637973 14.49612584 2.20594774 15.89454808 2.1953125 17.29296875 C2.19158178 18.72357485 2.18873509 20.15418352 2.18673706 21.58479309 C2.17910522 25.34792144 2.15946069 29.11089511 2.1373291 32.8739624 C2.11686094 36.71478178 2.10773327 40.55562617 2.09765625 44.39648438 C2.07621429 51.93106006 2.04208387 59.46550834 2 67 C1.67 67 1.34 67 1 67 C0.97494385 66.14583496 0.9498877 65.29166992 0.92407227 64.41162109 C0.805336 60.39935828 0.68466814 56.38715963 0.5625 52.375 C0.54043488 51.64947937 0.51836975 50.92395874 0.49563599 50.17645264 C0.18783587 40.13941999 -0.17276447 30.10820922 -0.69506836 20.07958984 C-1.48059398 4.44178195 -1.48059398 4.44178195 0 0 Z " fill="#2B8CC0" transform="translate(437,277)"/>
<path d="M0 0 C0.33 0 0.66 0 1 0 C1 26.07 1 52.14 1 79 C-0.98 79 -2.96 79 -5 79 C-4.40138258 76.64828869 -3.73075648 74.3140622 -3 72 C-2.01 71.505 -2.01 71.505 -1 71 C-1.00222061 70.12525528 -1.00444122 69.25051056 -1.00672913 68.34925842 C-1.02672978 60.12324654 -1.04197298 51.89724277 -1.05181217 43.6712122 C-1.05704056 39.44168629 -1.0641374 35.2121804 -1.07543945 30.98266602 C-1.08626991 26.90431457 -1.09227717 22.82598243 -1.09487724 18.74761772 C-1.09673121 17.18822361 -1.10035127 15.6288306 -1.10573006 14.06944466 C-1.11294262 11.89270838 -1.11399085 9.71605286 -1.11352539 7.53930664 C-1.115746 6.29798477 -1.11796661 5.0566629 -1.12025452 3.77772522 C-1 1 -1 1 0 0 Z " fill="#219AD4" transform="translate(437,312)"/>
<path d="M0 0 C0.33 0 0.66 0 1 0 C1.73591164 4.60316684 2.12275273 9.00986987 2.11352539 13.66967773 C2.11341209 15.59087685 2.11341209 15.59087685 2.11329651 17.55088806 C2.10819145 18.92845703 2.10297548 20.30602559 2.09765625 21.68359375 C2.0957886 23.1084844 2.09436634 24.53337569 2.09336853 25.95826721 C2.08957066 29.6884034 2.07976402 33.41849996 2.06866455 37.14862061 C2.05839141 40.96300725 2.05385832 44.77740036 2.04882812 48.59179688 C2.03813902 56.06121588 2.0210958 63.53060236 2 71 C1.67 71 1.34 71 1 71 C0.96241577 69.50557373 0.96241577 69.50557373 0.92407227 67.98095703 C0.80692326 63.36221451 0.68512513 58.74359997 0.5625 54.125 C0.54076721 53.29600189 0.51903442 52.46700378 0.49664307 51.61288452 C0.25964731 42.66809029 0.00248773 33.74003449 -0.625 24.8125 C-1.16196785 16.47710671 -0.68365741 8.30906698 0 0 Z " fill="#2671A2" transform="translate(437,209)"/>
<path d="M0 0 C1 2 1 2 0.14453125 4.65234375 C-0.29503906 5.73644531 -0.73460937 6.82054687 -1.1875 7.9375 C-3.57294925 13.92111293 -5.82513158 19.93709865 -8 26 C-8.33 26 -8.66 26 -9 26 C-8.98259766 25.07767578 -8.98259766 25.07767578 -8.96484375 24.13671875 C-8.95582031 23.32847656 -8.94679688 22.52023437 -8.9375 21.6875 C-8.92589844 20.88699219 -8.91429687 20.08648437 -8.90234375 19.26171875 C-8.90342145 16.83138666 -8.90342145 16.83138666 -10 14 C-10.03954234 11.66700175 -10.04401732 9.33291811 -10 7 C-8.68 7 -7.36 7 -6 7 C-6 6.34 -6 5.68 -6 5 C-5.01 5 -4.02 5 -3 5 C-1.28288757 2.55503957 -1.28288757 2.55503957 0 0 Z " fill="#12A9E2" transform="translate(290,237)"/>
<path d="M0 0 C1.32 0.66 2.64 1.32 4 2 C3.80019531 2.56460938 3.60039062 3.12921875 3.39453125 3.7109375 C2.89659101 6.59997692 3.51784684 7.95523406 4.6875 10.625 C5.06132812 11.49898437 5.43515625 12.37296875 5.8203125 13.2734375 C6.20960938 14.17320312 6.59890625 15.07296875 7 16 C7.69209745 17.74818688 8.37975127 19.49814087 9.0625 21.25 C11.30431194 27.57287208 11.30431194 27.57287208 15 33 C15.07179964 34.51928038 15.08392007 36.04167482 15.0625 37.5625 C15.05347656 38.38878906 15.04445312 39.21507812 15.03515625 40.06640625 C15.02355469 40.70449219 15.01195312 41.34257812 15 42 C12.13587116 39.13587116 11.15351382 35.60036191 9.75 31.875 C9.29246338 30.67677612 9.29246338 30.67677612 8.82568359 29.4543457 C8.19283979 27.79390907 7.56250042 26.13251592 6.93457031 24.47021484 C6.04500622 22.11895844 5.14507105 19.77194921 4.2421875 17.42578125 C3.70263816 16.01320669 3.16355367 14.60045446 2.625 13.1875 C2.24939941 12.21176025 2.24939941 12.21176025 1.86621094 11.21630859 C0.59422465 7.84527956 -0.53638467 4.58308421 -1 1 C-0.67 0.67 -0.34 0.34 0 0 Z " fill="#6BBBDC" transform="translate(210,187)"/>
<path d="M0 0 C2.97 0 5.94 0 9 0 C9.99 0.99 10.98 1.98 12 3 C11.01 3 10.02 3 9 3 C8.67 3.66 8.34 4.32 8 5 C7.34 4.67 6.68 4.34 6 4 C5.01 4.495 5.01 4.495 4 5 C2.88082936 10.36502425 2.91557423 15.60315187 3 21.0625 C3.0690727 29.09769602 2.73146649 36.99305437 2 45 C1.67 45 1.34 45 1 45 C0.67 30.15 0.34 15.3 0 0 Z " fill="#224D7A" transform="translate(405,115)"/>
<path d="M0 0 C2.90324609 5.29125435 4.32107129 11.20287122 6.05102539 16.9543457 C6.68722344 19.06158398 7.33652707 21.16450082 7.98632812 23.26757812 C8.39143624 24.60652565 8.79576033 25.9457107 9.19921875 27.28515625 C9.56877686 28.50082275 9.93833496 29.71648926 10.3190918 30.96899414 C11 34 11 34 10 37 C9.67 35.35 9.34 33.7 9 32 C8.34 32 7.68 32 7 32 C7 31.34 7 30.68 7 30 C6.01 29.67 5.02 29.34 4 29 C4.020625 27.865625 4.04125 26.73125 4.0625 25.5625 C4.41577477 22.18424326 4.41577477 22.18424326 3 21 C2.76518307 18.81707226 2.58636677 16.62796826 2.4375 14.4375 C2.35371094 13.23996094 2.26992187 12.04242188 2.18359375 10.80859375 C2.12300781 9.88175781 2.06242188 8.95492187 2 8 C1.34 8 0.68 8 0 8 C0 5.36 0 2.72 0 0 Z " fill="#5EB6DE" transform="translate(246,197)"/>
<path d="M0 0 C1.50606515 3.01213029 1.12160331 6.11282622 1.09765625 9.4140625 C1.09553383 10.50852188 1.09553383 10.50852188 1.09336853 11.62509155 C1.08776531 13.95843585 1.07521235 16.29168464 1.0625 18.625 C1.05748541 20.20572778 1.05292243 21.78645707 1.04882812 23.3671875 C1.03779484 27.24482854 1.02052811 31.12239807 1 35 C2.2065625 35.185625 2.2065625 35.185625 3.4375 35.375 C4.283125 35.58125 5.12875 35.7875 6 36 C6.33 36.66 6.66 37.32 7 38 C7.66 38.66 8.32 39.32 9 40 C5.7 40 2.4 40 -1 40 C-1.02464775 34.46411467 -1.04283496 28.928261 -1.05493164 23.39233398 C-1.05997244 21.5075627 -1.06680498 19.62279535 -1.07543945 17.73803711 C-1.08751617 15.03498364 -1.09323068 12.33198169 -1.09765625 9.62890625 C-1.10281754 8.78099014 -1.10797882 7.93307404 -1.11329651 7.0594635 C-1.11349195 5.03928932 -1.06206211 3.01922066 -1 1 C-0.67 0.67 -0.34 0.34 0 0 Z " fill="#2BA1D0" transform="translate(407,351)"/>
<path d="M0 0 C1.32 0.33 2.64 0.66 4 1 C4.33 2.65 4.66 4.3 5 6 C5.99 6.33 6.98 6.66 8 7 C7.773125 7.721875 7.54625 8.44375 7.3125 9.1875 C6.69644958 12.06654562 6.69644958 12.06654562 8.5 14.375 C10.5208196 17.9114343 9.83804002 20.11454173 9 24 C7.29487259 21.44230888 6.31936855 19.46000689 5.2734375 16.62109375 C4.9640625 15.78255859 4.6546875 14.94402344 4.3359375 14.08007812 C4.01882812 13.20802734 3.70171875 12.33597656 3.375 11.4375 C3.05015625 10.56158203 2.7253125 9.68566406 2.390625 8.78320312 C0 2.25920759 0 2.25920759 0 0 Z " fill="#57B9E1" transform="translate(232,248)"/>
<path d="M0 0 C8.91 0 17.82 0 27 0 C27 0.33 27 0.66 27 1 C18.42 1 9.84 1 1 1 C0.67 4.3 0.34 7.6 0 11 C-0.66 11 -1.32 11 -2 11 C-2 12.98 -2 14.96 -2 17 C-2.99 17.33 -3.98 17.66 -5 18 C-4.39489814 11.19260402 -2.50942799 6.90092696 0 0 Z " fill="#35A3D2" transform="translate(283,170)"/>
<path d="M0 0 C0.66 0.33 1.32 0.66 2 1 C2.0724819 12.6776402 1.85203892 24.32837415 1.5 36 C1.45161134 37.66145218 1.40343326 39.32291052 1.35546875 40.984375 C1.23939429 44.98965799 1.12051353 48.99484822 1 53 C0.67 53 0.34 53 0 53 C-0.16957609 47.54164952 -0.32989296 42.0831279 -0.48217773 36.62426758 C-0.53506308 34.77295889 -0.59033946 32.92171672 -0.64819336 31.07055664 C-0.97269818 20.63278858 -1.15275447 10.39883102 0 0 Z " fill="#2874A4" transform="translate(406,214)"/>
<path d="M0 0 C0.33 0 0.66 0 1 0 C1 9.57 1 19.14 1 29 C-0.98 29 -2.96 29 -5 29 C-4.40138258 26.64828869 -3.73075648 24.3140622 -3 22 C-2.34 21.67 -1.68 21.34 -1 21 C-0.67 14.07 -0.34 7.14 0 0 Z " fill="#1EA2DB" transform="translate(437,362)"/>
<path d="M0 0 C3 2 3 2 3.625 4.1875 C2.62579867 8.68390598 -0.36466734 11.30796723 -4 14 C-7.4375 14.9375 -7.4375 14.9375 -10 15 C-9.60167969 14.55269531 -9.20335938 14.10539062 -8.79296875 13.64453125 C-5.05513437 9.37921659 -1.81760593 5.45281779 0 0 Z " fill="#375376" transform="translate(77,301)"/>
<path d="M0 0 C11.88 0 23.76 0 36 0 C36 0.33 36 0.66 36 1 C19.665 1.495 19.665 1.495 3 2 C3.33 4.97 3.66 7.94 4 11 C1.55160412 7.32740617 0 4.45351799 0 0 Z " fill="#6FB9D3" transform="translate(202,169)"/>
<path d="M0 0 C2.29170985 3.63231482 2.23717824 6.70581756 2.1875 10.9375 C2.17783203 12.74541016 2.17783203 12.74541016 2.16796875 14.58984375 C2.02369792 17.51887709 1.67498236 20.15427436 1 23 C0.67 23 0.34 23 0 23 C-0.33 19.7 -0.66 16.4 -1 13 C-1.33 13 -1.66 13 -2 13 C-1.85966889 11.02043559 -1.7125877 9.04134859 -1.5625 7.0625 C-1.48128906 5.96035156 -1.40007812 4.85820312 -1.31640625 3.72265625 C-1 1 -1 1 0 0 Z " fill="#1F3761" transform="translate(82,223)"/>
<path d="M0 0 C1.3008113 4.26543734 0.40030784 7.6553895 -0.6875 11.875 C-0.84927734 12.56980469 -1.01105469 13.26460937 -1.17773438 13.98046875 C-2.36718876 18.71155698 -4.08623391 22.08635208 -7 26 C-8 24 -8 24 -7.37915039 21.56982422 C-7.03875732 20.5748291 -6.69836426 19.57983398 -6.34765625 18.5546875 C-5.98349609 17.47832031 -5.61933594 16.40195313 -5.24414062 15.29296875 C-4.85419922 14.16503906 -4.46425781 13.03710938 -4.0625 11.875 C-3.67642578 10.73933594 -3.29035156 9.60367188 -2.89257812 8.43359375 C-1.93502821 5.62005203 -0.97057271 2.80907052 0 0 Z " fill="#6CC0DE" transform="translate(273,200)"/>
<path d="M0 0 C2.55933644 3.83900467 3.47558056 7.64641748 4.6875 12.0625 C4.92533203 12.89072266 5.16316406 13.71894531 5.40820312 14.57226562 C5.62798828 15.36439453 5.84777344 16.15652344 6.07421875 16.97265625 C6.27619873 17.69718994 6.47817871 18.42172363 6.6862793 19.16821289 C7 21 7 21 6 23 C5.34 22.67 4.68 22.34 4 22 C4 21.34 4 20.68 4 20 C3.34 19.67 2.68 19.34 2 19 C0.82711346 15.48134037 1 12.71210282 1 9 C0.73213926 5.9913499 0.38048637 2.99633017 0 0 Z " fill="#57B7E0" transform="translate(239,174)"/>
<path d="M0 0 C-1 2 -1 2 -4.0625 3.0625 C-11.3697151 4.94871203 -18.49901919 5.13833776 -26 5 C-26 4.34 -26 3.68 -26 3 C-25.154375 2.95101563 -24.30875 2.90203125 -23.4375 2.8515625 C-15.89372119 2.39400439 -15.89372119 2.39400439 -8.5 0.9375 C-5.44973617 0.12046505 -3.1239307 -0.19524567 0 0 Z " fill="#62708C" transform="translate(79,348)"/>
<path d="M0 0 C1.86551426 3.58752742 3.42535928 7.27812193 5 11 C3.35 11.66 1.7 12.32 0 13 C-2.44988842 10.55011158 -2.7658669 9.43395207 -3 6 C-1.5625 2.6875 -1.5625 2.6875 0 0 Z " fill="#374F74" transform="translate(149,233)"/>
<path d="M0 0 C0.66 0 1.32 0 2 0 C2.66 1.98 3.32 3.96 4 6 C4.99 6 5.98 6 7 6 C7 9.96 7 13.92 7 18 C4.91567501 14.87351251 3.71441389 11.94269132 2.375 8.4375 C1.92898437 7.28121094 1.48296875 6.12492188 1.0234375 4.93359375 C0 2 0 2 0 0 Z " fill="#4EB5E2" transform="translate(225,230)"/>
<path d="M0 0 C0.33 0 0.66 0 1 0 C0.67 7.59 0.34 15.18 0 23 C-2.3590074 20.6409926 -2.25566879 20.1703766 -2.265625 16.97265625 C-2.26820312 16.18052734 -2.27078125 15.38839844 -2.2734375 14.57226562 C-2.26183594 13.32993164 -2.26183594 13.32993164 -2.25 12.0625 C-2.25773437 11.23814453 -2.26546875 10.41378906 -2.2734375 9.56445312 C-2.27085938 8.77103516 -2.26828125 7.97761719 -2.265625 7.16015625 C-2.26336914 6.43449463 -2.26111328 5.70883301 -2.25878906 4.96118164 C-2 3 -2 3 0 0 Z " fill="#728096" transform="translate(82,145)"/>
<path d="M0 0 C0.53625 0.721875 1.0725 1.44375 1.625 2.1875 C4.97237858 6.15150095 8.67217898 9.11478598 13 12 C11.02 12.99 11.02 12.99 9 14 C1.51928251 8.39372197 1.51928251 8.39372197 0.24609375 4.9765625 C0 3.0625 0 3.0625 0 0 Z " fill="#4A5F7F" transform="translate(338,238)"/>
<path d="M0 0 C0.99 0.66 1.98 1.32 3 2 C2.01 5.3 1.02 8.6 0 12 C-0.66 12 -1.32 12 -2 12 C-2.33 12.99 -2.66 13.98 -3 15 C-3.36263859 9.1977825 -2.25684543 5.36000789 0 0 Z " fill="#41AEDC" transform="translate(277,188)"/>
<path d="M0 0 C0.99 0.33 1.98 0.66 3 1 C3.984375 3.1796875 3.984375 3.1796875 4.75 5.875 C5.01296875 6.75929687 5.2759375 7.64359375 5.546875 8.5546875 C6 11 6 11 5 14 C4.67 12.35 4.34 10.7 4 9 C3.34 9 2.68 9 2 9 C2 8.34 2 7.68 2 7 C1.01 6.67 0.02 6.34 -1 6 C-0.67 4.02 -0.34 2.04 0 0 Z " fill="#4AB2DE" transform="translate(251,220)"/>
<path d="M0 0 C0.33 0.66 0.66 1.32 1 2 C2.65 2 4.3 2 6 2 C5.2575 2.515625 4.515 3.03125 3.75 3.5625 C0.46371455 6.47534392 -0.98763759 9.12433906 -3 13 C-3.33 13 -3.66 13 -4 13 C-4 11.35 -4 9.7 -4 8 C-3.67 8 -3.34 8 -3 8 C-2.690625 6.865625 -2.38125 5.73125 -2.0625 4.5625 C-1 1 -1 1 0 0 Z " fill="#4C627F" transform="translate(154,196)"/>
<path d="M0 0 C1.1653125 0.00515625 2.330625 0.0103125 3.53125 0.015625 C4.6965625 0.01046875 5.861875 0.0053125 7.0625 0 C10.03125 0.265625 10.03125 0.265625 12.03125 2.265625 C11.04125 3.255625 10.05125 4.245625 9.03125 5.265625 C8.70125 4.605625 8.37125 3.945625 8.03125 3.265625 C4.98543731 2.79608239 4.98543731 2.79608239 1.46875 2.640625 C0.27121094 2.56585938 -0.92632812 2.49109375 -2.16015625 2.4140625 C-3.08699219 2.36507812 -4.01382812 2.31609375 -4.96875 2.265625 C-2.96875 0.265625 -2.96875 0.265625 0 0 Z " fill="#23436C" transform="translate(416.96875,114.734375)"/>
<path d="M0 0 C1.32 0.33 2.64 0.66 4 1 C4.33 2.65 4.66 4.3 5 6 C5.99 6.33 6.98 6.66 8 7 C7.67 7.99 7.34 8.98 7 10 C5.109375 9.78515625 5.109375 9.78515625 3 9 C1.953125 6.93359375 1.953125 6.93359375 1.25 4.4375 C1.00765625 3.61121094 0.7653125 2.78492188 0.515625 1.93359375 C0.34546875 1.29550781 0.1753125 0.65742188 0 0 Z " fill="#22A4DA" transform="translate(232,248)"/>
<path d="M0 0 C0.99 1.485 0.99 1.485 2 3 C2.53625 3.53625 3.0725 4.0725 3.625 4.625 C5.73340188 8.26678507 5.23732375 11.88638836 5 16 C1.35072102 12.35072102 0.08414817 7.57076592 -0.1875 2.5 C-0.125625 1.675 -0.06375 0.85 0 0 Z " fill="#50AEDC" transform="translate(220,213)"/>
<path d="M0 0 C0.66 1.32 1.32 2.64 2 4 C0.02 4.66 -1.96 5.32 -4 6 C-5.5 4.625 -5.5 4.625 -7 3 C-7 2.34 -7 1.68 -7 1 C-4 0 -4 0 0 0 Z " fill="#2C476C" transform="translate(394,265)"/>
<path d="M0 0 C1.32 0.33 2.64 0.66 4 1 C3.01 1.495 3.01 1.495 2 2 C1.855625 2.639375 1.71125 3.27875 1.5625 3.9375 C1 6 1 6 -2 8 C-3.19232613 10.05003955 -3.19232613 10.05003955 -4 12 C-4.50423019 6.70558305 -3.18923033 4.18586481 0 0 Z " fill="#586E88" transform="translate(84,125)"/>
<path d="M0 0 C4.23830976 2.82553984 3.97715348 5.12180888 5 10 C3.02 10.99 3.02 10.99 1 12 C1.020625 11.030625 1.04125 10.06125 1.0625 9.0625 C1.35618499 6.12534105 1.35618499 6.12534105 0 5 C-0.04063832 3.33382885 -0.042721 1.66611905 0 0 Z " fill="#374C6A" transform="translate(394,187)"/>
<path d="M0 0 C2.4375 0.375 2.4375 0.375 5 1 C5.33 1.66 5.66 2.32 6 3 C6.66 3.66 7.32 4.32 8 5 C5.03 5 2.06 5 -1 5 C-0.67 3.35 -0.34 1.7 0 0 Z " fill="#17A7E9" transform="translate(408,386)"/>
<path d="M0 0 C1.98 0 3.96 0 6 0 C6 2.31 6 4.62 6 7 C5.01 7.495 5.01 7.495 4 8 C0 3.375 0 3.375 0 0 Z " fill="#375371" transform="translate(365,194)"/>
<path d="M0 0 C0.59355614 2.64860427 0.74209269 5.29197322 1 8 C0.34 8 -0.32 8 -1 8 C-1 7.34 -1 6.68 -1 6 C-1.66 6 -2.32 6 -3 6 C-4.38938077 4.03852126 -5.7260411 2.03833424 -7 0 C-2.25 -1.125 -2.25 -1.125 0 0 Z " fill="#4A6182" transform="translate(133,259)"/>
<path d="M0 0 C1.6396875 0.2475 1.6396875 0.2475 3.3125 0.5 C6.87525873 1.06718184 6.87525873 1.06718184 10 1 C10.99 1.33 11.98 1.66 13 2 C13 2.66 13 3.32 13 4 C11.58297487 3.85769192 10.1663904 3.71099254 8.75 3.5625 C7.56664062 3.44068359 7.56664062 3.44068359 6.359375 3.31640625 C4.17635361 3.02365007 2.1226818 2.57935581 0 2 C0 1.34 0 0.68 0 0 Z " fill="#415570" transform="translate(340,274)"/>
<path d="M0 0 C0.99 0 1.98 0 3 0 C2.54803755 1.60597325 2.08817673 3.20972508 1.625 4.8125 C1.36976563 5.70582031 1.11453125 6.59914062 0.8515625 7.51953125 C0 10 0 10 -2 13 C-2.19294408 8.17639811 -1.75747614 4.50353262 0 0 Z " fill="#55B8E0" transform="translate(295,218)"/>
<path d="M0 0 C0.66 0 1.32 0 2 0 C2 4.29 2 8.58 2 13 C1.01 13 0.02 13 -1 13 C-0.67 8.71 -0.34 4.42 0 0 Z " fill="#596B86" transform="translate(397,254)"/>
<path d="M0 0 C0.33 0 0.66 0 1 0 C0.85915204 1.79206547 0.71216299 3.58364917 0.5625 5.375 C0.48128906 6.37273437 0.40007812 7.37046875 0.31640625 8.3984375 C0 11 0 11 -1 13 C-1.99 12.67 -2.98 12.34 -4 12 C-3.71788123 10.3733152 -3.42397625 8.74867104 -3.125 7.125 C-2.96257812 6.22007812 -2.80015625 5.31515625 -2.6328125 4.3828125 C-2 2 -2 2 0 0 Z " fill="#49617C" transform="translate(184,226)"/>
<path d="M0 0 C0.33 0 0.66 0 1 0 C1.22295635 2.39527434 1.42874063 4.79001341 1.625 7.1875 C1.68945312 7.86103516 1.75390625 8.53457031 1.8203125 9.22851562 C2.14362111 13.37090718 1.89095265 16.28305109 0 20 C-0.66 20 -1.32 20 -2 20 C-1.84152588 19.42024414 -1.68305176 18.84048828 -1.51977539 18.24316406 C-0.71911382 14.78779602 -0.62776918 11.28089697 -0.4375 7.75 C-0.39431641 7.00492187 -0.35113281 6.25984375 -0.30664062 5.4921875 C-0.20103275 3.661651 -0.10005799 1.83084824 0 0 Z " fill="#6A7D95" transform="translate(80,279)"/>
<path d="M0 0 C-2.48364257 2.48364257 -4.01360431 2.58274817 -7.4375 3.1875 C-8.88962891 3.45626953 -8.88962891 3.45626953 -10.37109375 3.73046875 C-13 4 -13 4 -16 3 C-13.89936424 2.30178583 -11.79434263 1.61675528 -9.6875 0.9375 C-8.51574219 0.55464844 -7.34398437 0.17179687 -6.13671875 -0.22265625 C-3 -1 -3 -1 0 0 Z " fill="#526483" transform="translate(382,274)"/>
<path d="M0 0 C2.64 0 5.28 0 8 0 C6.02 2.97 6.02 2.97 4 6 C3.01 5.67 2.02 5.34 1 5 C0.67 3.35 0.34 1.7 0 0 Z " fill="#27446E" transform="translate(350,250)"/>
<path d="M0 0 C1 2 2 4 3 6 C3.66 5.01 4.32 4.02 5 3 C4.67 5.31 4.34 7.62 4 10 C2.68 9.67 1.36 9.34 0 9 C0 6.03 0 3.06 0 0 Z " fill="#61BCE3" transform="translate(257,234)"/>
<path d="M0 0 C0.66 0 1.32 0 2 0 C1.88541307 1.43836751 1.75790884 2.87570966 1.625 4.3125 C1.55539063 5.11300781 1.48578125 5.91351563 1.4140625 6.73828125 C1 9 1 9 -1 12 C-1.33 11.67 -1.66 11.34 -2 11 C-1.57699017 7.26341315 -1.01457095 3.62346766 0 0 Z " fill="#445A77" transform="translate(212,233)"/>
<path d="M0 0 C1.875 0.125 1.875 0.125 4 1 C5.25 4.0625 5.25 4.0625 6 7 C5.01 7.33 4.02 7.66 3 8 C0 2.25 0 2.25 0 0 Z " fill="#415379" transform="translate(310,248)"/>
<path d="M0 0 C0.66 0.33 1.32 0.66 2 1 C2 6.28 2 11.56 2 17 C1.01 17 0.02 17 -1 17 C-0.67 11.39 -0.34 5.78 0 0 Z " fill="#226896" transform="translate(406,214)"/>
<path d="M0 0 C0.99 0.495 0.99 0.495 2 1 C2.6328125 3.50390625 2.6328125 3.50390625 3.125 6.5625 C3.29257813 7.57441406 3.46015625 8.58632812 3.6328125 9.62890625 C3.75398437 10.41136719 3.87515625 11.19382813 4 12 C3.01 11.67 2.02 11.34 1 11 C0.4254048 7.26513121 0 3.78706732 0 0 Z " fill="#3E6182" transform="translate(209,195)"/>
<path d="M0 0 C1.21236328 0.01353516 1.21236328 0.01353516 2.44921875 0.02734375 C3.37154297 0.04474609 3.37154297 0.04474609 4.3125 0.0625 C1.81744038 2.55755962 0.63921112 2.42198376 -2.8125 2.6875 C-3.72257813 2.76226562 -4.63265625 2.83703125 -5.5703125 2.9140625 C-6.61832031 2.98753906 -6.61832031 2.98753906 -7.6875 3.0625 C-7.6875 2.4025 -7.6875 1.7425 -7.6875 1.0625 C-4.80538698 0.10179566 -2.98899956 -0.04331883 0 0 Z " fill="#2D4061" transform="translate(165.6875,194.9375)"/>
<path d="M0 0 C-4.95 2.97 -4.95 2.97 -10 6 C-10.33 5.01 -10.66 4.02 -11 3 C-9.68 3 -8.36 3 -7 3 C-7 2.01 -7 1.02 -7 0 C-4 -1 -4 -1 0 0 Z " fill="#455877" transform="translate(91,343)"/>
<path d="M0 0 C1 2 1 2 0.00390625 5.0390625 C-0.47175781 6.22242188 -0.94742187 7.40578125 -1.4375 8.625 C-1.91058594 9.81351563 -2.38367188 11.00203125 -2.87109375 12.2265625 C-3.24363281 13.14179688 -3.61617188 14.05703125 -4 15 C-4.33 15 -4.66 15 -5 15 C-5.30017023 10.83513802 -4.45324946 8.34984273 -2.5 4.6875 C-2.0359375 3.80449219 -1.571875 2.92148438 -1.09375 2.01171875 C-0.7328125 1.34785156 -0.371875 0.68398437 0 0 Z " fill="#74C1DE" transform="translate(290,237)"/>
<path d="M0 0 C0.68707555 2.49064888 1 4.37886292 1 7 C-0.98 7.99 -0.98 7.99 -3 9 C-3.36923077 3.46153846 -3.36923077 3.46153846 -1.5 1.125 C-1.005 0.75375 -0.51 0.3825 0 0 Z " fill="#24A2DB" transform="translate(268,223)"/>
<path d="M0 0 C0.33 0 0.66 0 1 0 C1.96891192 5.37305699 1.96891192 5.37305699 2 8 C0.5625 10 0.5625 10 -1 11 C-2.23076923 4.6 -2.23076923 4.6 -1.0625 1.5625 C-0.711875 1.046875 -0.36125 0.53125 0 0 Z " fill="#455D81" transform="translate(310,196)"/>
<path d="M0 0 C0.79921875 0.00902344 1.5984375 0.01804688 2.421875 0.02734375 C3.02515625 0.03894531 3.6284375 0.05054688 4.25 0.0625 C3.92 0.7225 3.59 1.3825 3.25 2.0625 C1.03515625 2.546875 1.03515625 2.546875 -1.6875 2.8125 C-2.58339844 2.91046875 -3.47929687 3.0084375 -4.40234375 3.109375 C-6.75 3.0625 -6.75 3.0625 -8.75 1.0625 C-5.75519083 0.1901588 -3.11424089 -0.04579766 0 0 Z " fill="#305773" transform="translate(354.75,191.9375)"/>
<path d="M0 0 C1.22589844 0.15275391 1.22589844 0.15275391 2.4765625 0.30859375 C3.41628906 0.43427734 3.41628906 0.43427734 4.375 0.5625 C2.04285852 1.76878008 -0.12142139 2.7279738 -2.625 3.5625 C-3.285 4.2225 -3.945 4.8825 -4.625 5.5625 C-5.285 3.9125 -5.945 2.2625 -6.625 0.5625 C-4.10446405 -0.69776798 -2.7707902 -0.35624445 0 0 Z " fill="#3B5374" transform="translate(368.625,168.4375)"/>
<path d="M0 0 C2.97 0 5.94 0 9 0 C7 2 7 2 4.5 2.9375 C1.69808253 3.8583474 1.69808253 3.8583474 0 7 C0 4.69 0 2.38 0 0 Z " fill="#4C6581" transform="translate(405,115)"/>
<path d="M0 0 C0.99 0 1.98 0 3 0 C3 0.66 3 1.32 3 2 C3.99 2.33 4.98 2.66 6 3 C4.02 3.33 2.04 3.66 0 4 C-0.33 5.32 -0.66 6.64 -1 8 C-1.04241723 5.66705225 -1.04092937 3.33297433 -1 1 C-0.67 0.67 -0.34 0.34 0 0 Z " fill="#435A73" transform="translate(38,315)"/>
<path d="M0 0 C0.66 0 1.32 0 2 0 C2.125 6.625 2.125 6.625 1 10 C0.34 10 -0.32 10 -1 10 C-0.67 6.7 -0.34 3.4 0 0 Z " fill="#3AACD9" transform="translate(298,208)"/>
<path d="M0 0 C1.53166168 4.08443115 0.63081652 7.79455657 0 12 C-0.99 12.33 -1.98 12.66 -3 13 C-2.45144652 8.428721 -1.58255197 4.32564205 0 0 Z " fill="#72C2DC" transform="translate(281,175)"/>
<path d="M0 0 C6.0546875 -0.1953125 6.0546875 -0.1953125 8 0 C8.66 0.66 9.32 1.32 10 2 C8.02253397 2.73080266 6.01927511 3.39421747 4 4 C3.34 3.67 2.68 3.34 2 3 C2 2.34 2 1.68 2 1 C1.34 0.67 0.68 0.34 0 0 Z " fill="#456187" transform="translate(427,115)"/>
<path d="M0 0 C0.75 1.75 0.75 1.75 1 4 C-0.6875 6.3125 -0.6875 6.3125 -3 8 C-5.25 7.75 -5.25 7.75 -7 7 C-4.66666667 4.66666667 -2.33333333 2.33333333 0 0 Z " fill="#465975" transform="translate(74,308)"/>
<path d="M0 0 C2.64 0 5.28 0 8 0 C5.06171403 2.50298434 2.82097239 3.46930939 -1 4 C-0.67 2.68 -0.34 1.36 0 0 Z " fill="#2E4A71" transform="translate(359,251)"/>
<path d="M0 0 C-1.75 2.0625 -1.75 2.0625 -4 4 C-7.01811422 3.82246387 -7.83735215 3.16264785 -10 1 C-8.71073008 0.63720544 -7.41846728 0.28503302 -6.125 -0.0625 C-5.40570313 -0.25972656 -4.68640625 -0.45695313 -3.9453125 -0.66015625 C-2 -1 -2 -1 0 0 Z " fill="#384B73" transform="translate(379,249)"/>
<path d="M0 0 C0.66 0.33 1.32 0.66 2 1 C0.6302836 4.99500618 -1.25722422 7.80009492 -4 11 C-3.74438677 8.6568787 -3.40729228 6.32156597 -3 4 C-2.34 3.67 -1.68 3.34 -1 3 C-0.67 2.01 -0.34 1.02 0 0 Z " fill="#3AAEDE" transform="translate(291,231)"/>
<path d="M0 0 C0.66 0.99 1.32 1.98 2 3 C1.34 3 0.68 3 0 3 C0 3.66 0 4.32 0 5 C-1.65 5 -3.3 5 -5 5 C-5 5.66 -5 6.32 -5 7 C-5.66 6.67 -6.32 6.34 -7 6 C-5.625 4.5 -5.625 4.5 -4 3 C-3.34 3 -2.68 3 -2 3 C-2 2.34 -2 1.68 -2 1 C-1.34 0.67 -0.68 0.34 0 0 Z " fill="#4C6481" transform="translate(326,176)"/>
<path d="M0 0 C2.64 0 5.28 0 8 0 C8.33 0.99 8.66 1.98 9 3 C2.25 3.125 2.25 3.125 0 2 C0 1.34 0 0.68 0 0 Z " fill="#395271" transform="translate(162,249)"/>
<path d="M0 0 C0.99 0.33 1.98 0.66 3 1 C3 2.65 3 4.3 3 6 C1.35 6 -0.3 6 -2 6 C-1.34 4.02 -0.68 2.04 0 0 Z " fill="#415D82" transform="translate(313,190)"/>
<path d="M0 0 C0.33 0 0.66 0 1 0 C1 1.65 1 3.3 1 5 C0.01 5.33 -0.98 5.66 -2 6 C-2.73323796 8.01508358 -2.73323796 8.01508358 -3 10 C-4.125 5.25 -4.125 5.25 -3 3 C-2.01 3 -1.02 3 0 3 C0 2.01 0 1.02 0 0 Z " fill="#1DA5DE" transform="translate(309,182)"/>
<path d="M0 0 C0.99 0.66 1.98 1.32 3 2 C0.03 4.475 0.03 4.475 -3 7 C-3.66 6.67 -4.32 6.34 -5 6 C-3.35 4.02 -1.7 2.04 0 0 Z " fill="#4A5F7A" transform="translate(130,181)"/>
<path d="M0 0 C3.465 1.98 3.465 1.98 7 4 C7 4.66 7 5.32 7 6 C7.66 6.33 8.32 6.66 9 7 C7.35 7 5.7 7 4 7 C4 6.01 4 5.02 4 4 C2.68 3.67 1.36 3.34 0 3 C0 2.01 0 1.02 0 0 Z " fill="#556884" transform="translate(380,173)"/>
<path d="M0 0 C2.64 0.33 5.28 0.66 8 1 C7.67 2.32 7.34 3.64 7 5 C4.11424181 4.60196439 3.17810487 4.20990931 1.25 1.9375 C0.8375 1.298125 0.425 0.65875 0 0 Z " fill="#384E75" transform="translate(174,168)"/>
<path d="M0 0 C0 2.31 0 4.62 0 7 C-1.32 6.67 -2.64 6.34 -4 6 C-3.625 3.5625 -3.625 3.5625 -3 1 C-1 0 -1 0 0 0 Z " fill="#10A9E4" transform="translate(437,383)"/>
<path d="M0 0 C0.33 0.66 0.66 1.32 1 2 C3.02463255 2.65213292 3.02463255 2.65213292 5 3 C4.67 3.99 4.34 4.98 4 6 C1.11562221 4.70700306 -0.87219421 3.34058637 -3 1 C-2.01 0.67 -1.02 0.34 0 0 Z " fill="#465B77" transform="translate(326,265)"/>
<path d="M0 0 C2.79872437 2.52788007 4.45773019 4.20411134 5 8 C2.4636387 6.98545548 1.20648539 6.3146444 -0.3125 4 C-0.539375 3.34 -0.76625 2.68 -1 2 C-0.67 1.34 -0.34 0.68 0 0 Z " fill="#4F6885" transform="translate(201,182)"/>
<path d="M0 0 C1.98 0 3.96 0 6 0 C5.34 1.32 4.68 2.64 4 4 C2.68 3.67 1.36 3.34 0 3 C0 2.01 0 1.02 0 0 Z " fill="#2A446B" transform="translate(65,316)"/>
<path d="M0 0 C2.76223278 2.76223278 2.57856291 5.20706617 3 9 C2.34 9 1.68 9 1 9 C1 8.01 1 7.02 1 6 C0.34 6 -0.32 6 -1 6 C-1.042721 4.33388095 -1.04063832 2.66617115 -1 1 C-0.67 0.67 -0.34 0.34 0 0 Z " fill="#20A4DA" transform="translate(242,266)"/>
<path d="M0 0 C0.99 0.33 1.98 0.66 3 1 C3.33 3.97 3.66 6.94 4 10 C1.81024227 6.71536341 1.00193437 3.79303725 0 0 Z " fill="#64BDDC" transform="translate(228,238)"/>
<path d="M0 0 C0.66 0.99 1.32 1.98 2 3 C1.01 4.98 0.02 6.96 -1 9 C-2.1875 7.3125 -2.1875 7.3125 -3 5 C-1.625 2.25 -1.625 2.25 0 0 Z " fill="#384C69" transform="translate(339,200)"/>
<path d="M0 0 C1.32 0.99 2.64 1.98 4 3 C2.75 4.5625 2.75 4.5625 1 6 C-1.1875 5.6875 -1.1875 5.6875 -3 5 C-2.01 4.67 -1.02 4.34 0 4 C0 2.68 0 1.36 0 0 Z " fill="#294A70" transform="translate(46,345)"/>
<path d="M0 0 C0.0825 0.61875 0.165 1.2375 0.25 1.875 C0.81258459 4.18437567 0.81258459 4.18437567 3.0625 5.25 C3.701875 5.4975 4.34125 5.745 5 6 C2 7 2 7 -1 7 C-0.67 4.69 -0.34 2.38 0 0 Z " fill="#547090" transform="translate(307,205)"/>
<path d="M0 0 C-4.75 4.875 -4.75 4.875 -7 6 C-7 4.35 -7 2.7 -7 1 C-3.375 -1.125 -3.375 -1.125 0 0 Z " fill="#4E667E" transform="translate(348,196)"/>
<path d="M0 0 C1.39195915 4.17587745 -0.17676781 6.13474776 -2 10 C-3.10348268 6.68955197 -2.99444068 4.34493684 -2 1 C-1.34 0.67 -0.68 0.34 0 0 Z " fill="#6ABEDA" transform="translate(309,187)"/>
<path d="M0 0 C1.32 0.66 2.64 1.32 4 2 C3.34 3.65 2.68 5.3 2 7 C1.34 6.67 0.68 6.34 0 6 C-0.6875 3.5 -0.6875 3.5 -1 1 C-0.67 0.67 -0.34 0.34 0 0 Z " fill="#44AEDF" transform="translate(210,187)"/>
<path d="M0 0 C0.66 0.33 1.32 0.66 2 1 C0.68 3.31 -0.64 5.62 -2 8 C-2.66 6.68 -3.32 5.36 -4 4 C-3.34 4 -2.68 4 -2 4 C-2 3.34 -2 2.68 -2 2 C-1.34 2 -0.68 2 0 2 C0 1.34 0 0.68 0 0 Z " fill="#4F617E" transform="translate(105,324)"/>
<path d="M0 0 C-1.32 0.99 -2.64 1.98 -4 3 C-5.32 2.34 -6.64 1.68 -8 1 C-4.93251126 -0.86240388 -3.40254489 -1.2151946 0 0 Z " fill="#4C5E7A" transform="translate(190,272)"/>
<path d="M0 0 C0.66 0 1.32 0 2 0 C0.95902388 3.86648272 -0.03698408 7.49461443 -2 11 C-2.19622241 6.78121808 -1.80230168 3.82989106 0 0 Z " fill="#72C0E1" transform="translate(283,252)"/>
<path d="M0 0 C1.32 0.33 2.64 0.66 4 1 C3.67 3.31 3.34 5.62 3 8 C1.0549 5.08235 0.54723683 3.37462715 0 0 Z " fill="#58BAE4" transform="translate(232,248)"/>
<path d="M0 0 C0.66 0 1.32 0 2 0 C2.66 2.64 3.32 5.28 4 8 C3.34 8 2.68 8 2 8 C0.74335022 5.09399739 0 3.20395416 0 0 Z " fill="#354B72" transform="translate(118,241)"/>
<path d="M0 0 C0.66 0 1.32 0 2 0 C1.34 2.97 0.68 5.94 0 9 C-0.99 8.67 -1.98 8.34 -3 8 C-2.34 7.67 -1.68 7.34 -1 7 C-0.59270772 4.67843403 -0.25561323 2.3431213 0 0 Z " fill="#1CA0D6" transform="translate(285,243)"/>
<path d="M0 0 C1.32 1.65 2.64 3.3 4 5 C3.34 5.66 2.68 6.32 2 7 C2 6.34 2 5.68 2 5 C0.68 5 -0.64 5 -2 5 C-1.34 3.35 -0.68 1.7 0 0 Z " fill="#465E7C" transform="translate(179,239)"/>
<path d="M0 0 C0.99 0.33 1.98 0.66 3 1 C3.875 2.875 3.875 2.875 4 5 C2.5625 6.75 2.5625 6.75 1 8 C0.67 5.36 0.34 2.72 0 0 Z " fill="#607695" transform="translate(306,234)"/>
<path d="M0 0 C0.99 0 1.98 0 3 0 C3 2.97 3 5.94 3 9 C0.90250005 6.64031256 0.03094296 5.45383006 -0.1875 2.25 C-0.125625 1.5075 -0.06375 0.765 0 0 Z " fill="#61718C" transform="translate(80,231)"/>
<path d="M0 0 C1.485 0.99 1.485 0.99 3 2 C3.1875 5.625 3.1875 5.625 3 9 C2.34 8.67 1.68 8.34 1 8 C0.40644386 5.35139573 0.25790731 2.70802678 0 0 Z " fill="#1FA4D9" transform="translate(290,223)"/>
<path d="M0 0 C2.31 0 4.62 0 7 0 C7.33 0.99 7.66 1.98 8 3 C8.66 3.33 9.32 3.66 10 4 C7 4 7 4 5 3 C5 2.34 5 1.68 5 1 C3.35 1 1.7 1 0 1 C0 0.67 0 0.34 0 0 Z " fill="#586685" transform="translate(168,197)"/>
<path d="M0 0 C0.33 0.99 0.66 1.98 1 3 C0.34 3 -0.32 3 -1 3 C-1.33 3.66 -1.66 4.32 -2 5 C-3.65 4.67 -5.3 4.34 -7 4 C-4.68143083 2.45428722 -2.49361571 1.20381448 0 0 Z " fill="#516181" transform="translate(341,168)"/>
<path d="M0 0 C0 0.33 0 0.66 0 1 C-6.4 2.23076923 -6.4 2.23076923 -9.4375 1.0625 C-9.953125 0.711875 -10.46875 0.36125 -11 0 C-7.01803543 -1.05404945 -4.01804691 -0.84098656 0 0 Z " fill="#4C5E7A" transform="translate(160,169)"/>
</svg>
